<?xml version="1.0" standalone="no"?><!DOCTYPE svg PUBLIC "-//W3C//DTD SVG 1.1//EN" "http://www.w3.org/Graphics/SVG/1.1/DTD/svg11.dtd"><svg t="1766457578582" class="icon" viewBox="0 0 1080 1024" version="1.1" xmlns="http://www.w3.org/2000/svg" p-id="3218" width="18.984375" height="18" xmlns:xlink="http://www.w3.org/1999/xlink"><path d="M56.652229 626.951339l222.832103 64.20586c11.330446 3.776815 26.437707 0 33.991338-7.55363l343.690192-302.145224c18.884076-15.107261 41.544968 7.553631 26.437707 26.437707l-249.26981 302.145224c-7.553631 11.330446-3.776815 26.437707 7.553631 30.214522l370.127899 113.304459c41.544968 11.330446 86.866752-11.330446 94.420382-52.875414l169.956688-706.264461c15.107261-64.20586-49.098599-113.304459-109.527643-83.089936L41.544968 487.209173c-60.429045 30.214522-52.875414 120.858089 15.107261 139.742166z m479.655543 234.162549c7.553631-11.330446 0-26.437707-11.330446-30.214523l-98.197198-22.660892c-11.330446-3.776815-26.437707 3.776815-26.437707 18.884077v177.510319c0 18.884076 22.660892 26.437707 33.991338 11.330446l101.974013-154.849427z" p-id="3219" fill="#1296db"></path></svg>