<?xml version="1.0" standalone="no"?><!DOCTYPE svg PUBLIC "-//W3C//DTD SVG 1.1//EN" "http://www.w3.org/Graphics/SVG/1.1/DTD/svg11.dtd"><svg t="1766454399447" class="icon" viewBox="0 0 1024 1024" version="1.1" xmlns="http://www.w3.org/2000/svg" p-id="9006" width="24" height="24" xmlns:xlink="http://www.w3.org/1999/xlink"><path d="M512 1024C229.220174 1024 0 794.779826 0 512S229.220174 0 512 0s512 229.220174 512 512c-0.200348 282.690783-229.309217 511.799652-512 512z" fill="#1296db" p-id="9007" data-spm-anchor-id="a313x.search_index.0.i2.11a43a81lmiZIt" class=""></path><path d="M806.555826 765.595826a152.086261 152.086261 0 0 0-11.397565-14.246956 90.824348 90.824348 0 0 0-12.466087-11.75374l-11.041391-8.548173a35.617391 35.617391 0 0 0-8.548174-4.986435l-1.78087-0.356174-60.905739-39.891478a258.226087 258.226087 0 0 0-28.493913-16.027827l-82.276174-39.891478v-39.17913a158.141217 158.141217 0 0 0 55.206957-55.563131c12.466087-23.81913 19.634087-50.086957 21.01426-76.933565V428.29913a256.445217 256.445217 0 0 0-2.849391-53.426087l-2.493217-17.096347a173.456696 173.456696 0 0 0-48.795826-118.605913 146.387478 146.387478 0 0 0-121.099131-45.946435 124.304696 124.304696 0 0 0-83.700869 47.37113 221.184 221.184 0 0 0-48.083479 115.044174s-3.205565 54.850783-2.849391 61.618087l2.849391 38.466783c2.893913 26.557217 9.861565 52.49113 20.658087 76.933565a136.058435 136.058435 0 0 0 55.563131 55.56313v39.179131l-81.92 40.603826c-6.166261 3.094261-12.243478 6.522435-18.16487 10.329043L262.678261 725.704348l-6.054957 3.561739c-4.897391 3.094261-9.527652 6.544696-13.890782 10.329043a142.469565 142.469565 0 0 0-17.452522 16.740174 99.372522 99.372522 0 0 0-13.890783 21.014261 54.494609 54.494609 0 0 0 4.986435 55.206957c23.462957 20.257391 49.41913 37.353739 77.289739 50.932869a445.929739 445.929739 0 0 0 487.958261-26.713043c9.616696-6.856348 18.253913-15.003826 25.644522-24.219826 7.234783-9.394087 11.130435-20.925217 11.041391-32.768a54.53913 54.53913 0 0 0-3.205565-18.521044 71.234783 71.234783 0 0 0-8.548174-15.671652z" fill="#ffffff" p-id="9008" data-spm-anchor-id="a313x.search_index.0.i1.11a43a81lmiZIt" class=""></path></svg>