<?xml version="1.0" standalone="no"?><!DOCTYPE svg PUBLIC "-//W3C//DTD SVG 1.1//EN" "http://www.w3.org/Graphics/SVG/1.1/DTD/svg11.dtd"><svg t="1766454486576" class="icon" viewBox="0 0 1024 1024" version="1.1" xmlns="http://www.w3.org/2000/svg" p-id="10838" xmlns:xlink="http://www.w3.org/1999/xlink" width="24" height="24"><path d="M512 512m-512 0a512 512 0 1 0 1024 0 512 512 0 1 0-1024 0Z" fill="#1296db" p-id="10839" data-spm-anchor-id="a313x.search_index.0.i9.11a43a81lmiZIt" class=""></path><path d="M338.0736 401.3056c0 93.5424 77.3632 169.3696 172.9024 169.3696 95.488 0 172.9024-75.776 172.9024-169.3696 0-93.5424-77.4144-169.3696-172.9024-169.3696-95.5392 0-172.9024 75.8272-172.9024 169.3696zM311.296 309.9648a72.704 72.704 0 0 0-6.5024 0.256A226.304 226.304 0 0 1 510.976 179.712a226.304 226.304 0 0 1 206.1312 130.56 91.4944 91.4944 0 0 0-6.4512-0.256v156.416c44.032 0 79.872-35.0208 79.872-78.1824 0-29.3376-16.5376-54.8864-40.9088-68.3008C715.3152 223.1296 621.568 153.6 510.976 153.6 400.384 153.6 306.688 223.1296 272.2816 319.8976c-24.3712 13.3632-40.8576 38.912-40.8576 68.2496 0 43.2128 35.7376 78.2336 79.872 78.2336V309.9648z m199.68 312.6784c-66.56 0-127.1296-25.1904-172.288-66.3552C257.8432 596.992 168.3968 708.3008 204.8 768c36.352 59.6992 205.312 102.4 307.2 102.4 102.912 0 269.4144-35.4304 307.2-102.4 37.7856-66.9696-54.016-171.3152-135.68-211.968a254.8736 254.8736 0 0 1-172.544 66.6112z" fill="#FFFFFF" p-id="10840"></path></svg>